<?xml version="1.0" encoding="UTF-8" standalone="no"?>
<!-- Created with Inkscape (http://www.inkscape.org/) -->

<svg
   xmlns:dc="http://purl.org/dc/elements/1.1/"
   xmlns:cc="http://creativecommons.org/ns#"
   xmlns:rdf="http://www.w3.org/1999/02/22-rdf-syntax-ns#"
   xmlns:svg="http://www.w3.org/2000/svg"
   xmlns="http://www.w3.org/2000/svg"
   xmlns:sodipodi="http://sodipodi.sourceforge.net/DTD/sodipodi-0.dtd"
   xmlns:inkscape="http://www.inkscape.org/namespaces/inkscape"
   width="240mm"
   height="120mm"
   viewBox="0 0 240 120"
   version="1.1"
   id="svg8"
   inkscape:version="0.92.3 (2405546, 2018-03-11)"
   sodipodi:docname="\-dibujo.svg">
  <defs
     id="defs2" />
  <sodipodi:namedview
     id="base"
     pagecolor="#ffffff"
     bordercolor="#666666"
     borderopacity="1.0"
     inkscape:pageopacity="0.0"
     inkscape:pageshadow="2"
     inkscape:zoom="0.99437388"
     inkscape:cx="334.55917"
     inkscape:cy="156.57344"
     inkscape:document-units="mm"
     inkscape:current-layer="layer1"
     showgrid="false"
     showborder="true"
     width="200mm"
     showguides="true"
     inkscape:guide-bbox="true"
     inkscape:window-width="1920"
     inkscape:window-height="1031"
     inkscape:window-x="0"
     inkscape:window-y="0"
     inkscape:window-maximized="1">
    <inkscape:grid
       type="xygrid"
       id="grid815"
       units="mm"
       spacingx="10"
       spacingy="10"
       empspacing="4"
       dotted="false" />
  </sodipodi:namedview>
  <metadata
     id="metadata5">
    <rdf:RDF>
      <cc:Work
         rdf:about="">
        <dc:format>image/svg+xml</dc:format>
        <dc:type
           rdf:resource="http://purl.org/dc/dcmitype/StillImage" />
        <dc:title></dc:title>
      </cc:Work>
    </rdf:RDF>
  </metadata>
  <g
     inkscape:label="Layer 1"
     inkscape:groupmode="layer"
     id="layer1"
     transform="translate(0,-177)">
    <path
       style="fill:none;stroke:#000000;stroke-width:0.21748018px;stroke-linecap:butt;stroke-linejoin:miter;stroke-opacity:1"
       d="m 63.255047,274.23479 -4.801828,9.2046 c 0,0 -9.603662,11.71495 0.342988,11.99387 9.946647,0.27893 14.405491,-0.83677 14.405491,-0.83677 0,0 8.231707,2.78926 0.171495,-12.27281 -8.060214,-15.06209 -4.458844,-6.97318 -4.458844,-6.97318 z"
       id="path818"
       inkscape:connector-curvature="0" />
    <path
       style="fill:#fff000;fill-opacity:1;stroke:#f1ff00;stroke-width:0.2190551;stroke-miterlimit:4;stroke-dasharray:none;stroke-opacity:1"
       d="m 56.305583,294.70804 c -0.988357,-0.44184 -1.887903,-1.67435 -1.884759,-2.58239 9.17e-4,-0.26605 0.197302,-1.16726 0.436401,-2.00269 0.322962,-1.12847 0.977879,-2.38338 2.547445,-4.88123 1.161996,-1.84925 2.979512,-5.0288 4.038923,-7.06567 1.834394,-3.52688 1.951981,-3.6967 2.467077,-3.56309 1.652326,0.4286 5.097121,1.01184 5.223851,0.88445 0.08129,-0.0817 0.479036,0.4004 0.883892,1.07135 l 0.736112,1.21991 -0.873657,2.01687 c -0.480512,1.10928 -0.828827,2.13485 -0.774037,2.27903 0.05479,0.14418 0.36272,-0.34504 0.684298,-1.08718 0.321574,-0.74215 0.720918,-1.65137 0.887433,-2.0205 l 0.302748,-0.67116 1.347538,2.48418 c 3.871049,7.13628 5.145659,11.35727 3.912911,12.95799 -0.448948,0.58296 -0.578761,0.60396 -2.701033,0.43709 -6.673086,-0.52471 -8.56025,-3.23432 -6.015538,-8.63715 0.693494,-1.47239 0.699149,-2.06661 0.0096,-1.01307 -0.575238,0.87896 -1.454095,3.78515 -1.454095,4.80839 0,1.12193 0.455257,2.58987 0.974972,3.14373 0.607724,0.64765 2.161721,1.48044 3.167415,1.69742 0.586955,0.12665 0.797262,0.27377 0.675186,0.47232 -0.114064,0.18552 -2.579924,0.32131 -6.913408,0.38072 -5.609028,0.0769 -6.89392,0.0218 -7.679318,-0.32932 z"
       id="path824"
       inkscape:connector-curvature="0" />
    <path
       style="fill:none;stroke:#000000;stroke-width:0.21748018px;stroke-linecap:butt;stroke-linejoin:miter;stroke-opacity:1"
       d="m 61.197122,278.97655 c 0,0 2.418986,3.67908 9.784188,-0.67081"
       id="path826"
       inkscape:connector-curvature="0" />
    <path
       style="fill:#fff000;fill-opacity:1;stroke:#f1ff00;stroke-width:1.00724161;stroke-miterlimit:4;stroke-dasharray:none;stroke-opacity:1"
       d=""
       id="path828"
       inkscape:connector-curvature="0"
       transform="matrix(0.26458333,0,0,0.26458333,0,177)" />
    <path
       style="fill:#b65500;fill-opacity:1;stroke:#f1ff00;stroke-width:0.2190551;stroke-miterlimit:4;stroke-dasharray:none;stroke-opacity:1"
       d="m 62.822354,279.88604 c -0.640837,-0.33973 -1.543018,-1.03556 -1.538841,-1.18686 0.0025,-0.0917 0.486778,-1.02954 1.076095,-2.08395 l 1.071489,-1.91712 2.911138,0.49354 2.911143,0.49355 0.643102,0.99206 c 0.353703,0.54563 0.643102,1.13194 0.643102,1.3029 0,0.36122 -1.266466,1.04873 -3.055232,1.65857 -1.171598,0.39943 -4.08364,0.55391 -4.661996,0.24731 z"
       id="path838"
       inkscape:connector-curvature="0" />
    <path
       style="fill:none;stroke:#000000;stroke-width:0.12464882px;stroke-linecap:butt;stroke-linejoin:miter;stroke-opacity:1"
       d="m 65.751745,276.95721 c -0.122026,-24.33813 0.122025,-25.11078 0.610128,-24.59568 0.488103,0.5151 -0.610128,24.59568 -0.610128,24.59568 z"
       id="path840"
       inkscape:connector-curvature="0" />
    <path
       style="fill:#b6ff00;fill-opacity:1;stroke:#f1ff00;stroke-width:0.12555149;stroke-miterlimit:4;stroke-dasharray:none;stroke-opacity:1"
       d="m 66.307673,257.29665 c 0.0059,-0.15001 0.03477,-0.18052 0.07372,-0.0778 0.03525,0.0929 0.03092,0.20402 -0.0096,0.24682 -0.04055,0.0428 -0.06939,-0.0333 -0.06409,-0.16902 z"
       id="path842"
       inkscape:connector-curvature="0" />
    <path
       style="fill:#b6ff00;fill-opacity:1;stroke:#f1ff00;stroke-width:0.12555149;stroke-miterlimit:4;stroke-dasharray:none;stroke-opacity:1"
       d="m 65.833331,265.93518 c -0.01991,-9.24593 0.264275,-15.88424 0.525141,-12.26673 0.04976,0.68994 0.0558,1.67506 0.01343,2.18914 -0.04237,0.51409 -0.107449,2.61519 -0.144618,4.66913 -0.03717,2.05393 -0.13839,5.32798 -0.224938,7.27568 l -0.157359,3.54126 z"
       id="path844"
       inkscape:connector-curvature="0" />
    <path
       style="fill:#0dfe00;fill-opacity:1;stroke:#f1ff00;stroke-width:0.12555149;stroke-miterlimit:4;stroke-dasharray:none;stroke-opacity:1"
       d="m 65.999053,260.26917 c 0.02617,-3.83553 0.09412,-6.62089 0.16805,-6.88937 0.134626,-0.48886 0.05776,6.73629 -0.117128,11.01011 -0.06318,1.54377 -0.08018,0.1675 -0.05092,-4.12074 z"
       id="path846"
       inkscape:connector-curvature="0" />
    <path
       style="fill:#0dfe00;fill-opacity:1;stroke:#f1ff00;stroke-width:0.12555149;stroke-miterlimit:4;stroke-dasharray:none;stroke-opacity:1"
       d="m 65.813314,265.74034 c 0.02262,-5.74679 0.191808,-12.394 0.325923,-12.80513 0.153839,-0.47161 0.252042,0.77331 0.217917,2.7625 -0.08285,4.829 -0.107972,5.129 -0.188754,2.25354 -0.061,-2.17128 -0.07375,-1.75252 -0.06469,2.12476 0.01077,4.60834 -0.131605,10.68207 -0.253523,10.81526 -0.03157,0.0345 -0.04817,-2.28343 -0.03688,-5.15093 z"
       id="path848"
       inkscape:connector-curvature="0" />
    <path
       style="fill:#0dfe00;fill-opacity:1;stroke:#f1ff00;stroke-width:0.12555149;stroke-miterlimit:4;stroke-dasharray:none;stroke-opacity:1"
       d="m 65.965198,256.85668 c 0,-0.31872 0.0238,-0.4491 0.05288,-0.28974 0.02909,0.15935 0.02909,0.42012 0,0.57947 -0.02908,0.15936 -0.05288,0.029 -0.05288,-0.28973 z"
       id="path850"
       inkscape:connector-curvature="0" />
    <path
       style="fill:#0dfe00;fill-opacity:1;stroke:#f1ff00;stroke-width:0.12555149;stroke-miterlimit:4;stroke-dasharray:none;stroke-opacity:1"
       d="m 66.073497,261.60706 c -0.01073,-2.16799 -0.05561,-4.2197 -0.09972,-4.55937 -0.05457,-0.42019 -0.03901,-0.59071 0.0487,-0.5335 0.204818,0.13359 0.28522,2.98117 0.173287,6.13728 l -0.102757,2.8974 z"
       id="path852"
       inkscape:connector-curvature="0" />
    <path
       style="fill:none;stroke:#000000;stroke-width:0.12464882px;stroke-linecap:butt;stroke-linejoin:miter;stroke-opacity:1"
       d="m 65.965198,256.85668 13.477032,-4.29126 c 13.819515,-3.85128 -0.122025,-1.15896 -0.122025,-1.15896 l -12.690681,1.93161 -13.788916,-2.57547 c 0,0 -15.46668,0.012 -1.342284,2.83301"
       id="path856"
       inkscape:connector-curvature="0" />
    <path
       style="fill:none;stroke:#000000;stroke-width:0.12464882px;stroke-linecap:butt;stroke-linejoin:miter;stroke-opacity:1"
       d="m 65.965198,256.85668 -14.124396,-2.8211"
       id="path858"
       inkscape:connector-curvature="0" />
    <path
       style="fill:#008000;fill-opacity:1;stroke:#f1ff00;stroke-width:1.00724161;stroke-miterlimit:4;stroke-dasharray:none;stroke-opacity:1"
       d=""
       id="path860"
       inkscape:connector-curvature="0"
       transform="matrix(0.26458333,0,0,0.26458333,0,177)" />
    <path
       style="fill:#008000;fill-opacity:1;stroke:#f1ff00;stroke-width:0.12555149;stroke-miterlimit:4;stroke-dasharray:none;stroke-opacity:1"
       d="m 66.542091,254.99192 c 0,-1.42784 0.0094,-1.48069 0.274558,-1.54427 0.151007,-0.0362 2.965226,-0.47277 6.253822,-0.97015 3.288595,-0.49737 6.941633,-1.07436 8.117864,-1.2822 1.17622,-0.20782 2.52157,-0.41051 2.98963,-0.45041 l 0.85103,-0.0725 -0.67114,0.26266 c -0.36912,0.14446 -1.57718,0.52717 -2.68456,0.85047 -1.10739,0.3233 -4.912278,1.50965 -8.455313,2.63634 -3.543036,1.1267 -6.494535,2.04853 -6.558887,2.04853 -0.06786,0 -0.117004,-0.62097 -0.117004,-1.47844 z"
       id="path862"
       inkscape:connector-curvature="0" />
    <path
       style="fill:#008000;fill-opacity:1;stroke:#f1ff00;stroke-width:0.12555149;stroke-miterlimit:4;stroke-dasharray:none;stroke-opacity:1"
       d="m 66.690398,254.97231 0.03473,-1.38948 4.392929,-0.67913 c 2.41611,-0.37354 6.22401,-0.97382 8.461999,-1.33397 2.237989,-0.36015 4.100409,-0.62175 4.138709,-0.58134 0.0383,0.0404 0.0333,0.0735 -0.011,0.0735 -0.11941,0 -13.743963,4.23252 -16.834264,5.22962 -0.201096,0.0649 -0.215111,-0.0362 -0.183039,-1.3192 z"
       id="path864"
       inkscape:connector-curvature="0" />
    <path
       style="fill:none;stroke:#000000;stroke-width:0.12464882px;stroke-linecap:butt;stroke-linejoin:miter;stroke-opacity:1"
       d="m 51.498324,253.59561 0.342476,0.43997"
       id="path866"
       inkscape:connector-curvature="0" />
    <path
       style="fill:#008000;fill-opacity:1;stroke:#f1ff00;stroke-width:0.12555149;stroke-miterlimit:4;stroke-dasharray:none;stroke-opacity:1"
       d="m 58.839875,255.51595 c -4.804307,-0.971 -6.55492,-1.37231 -6.734519,-1.54383 -0.149732,-0.143 -0.872958,-0.37022 -1.888277,-0.59326 -2.435351,-0.53497 -4.226457,-1.14007 -4.226457,-1.42782 0,-0.36656 2.970786,-0.75603 5.796225,-0.7599 1.460984,-0.002 2.087744,0.091 7.931677,1.17642 3.489938,0.64822 6.358424,1.18877 6.374414,1.20121 0.01599,0.0125 -0.0062,0.75731 -0.04933,1.65527 l -0.07841,1.63264 -0.31674,-0.0143 c -0.174207,-0.008 -3.238067,-0.60477 -6.808575,-1.32639 z"
       id="path868"
       inkscape:connector-curvature="0" />
    <path
       style="fill:none;stroke:#000000;stroke-width:0.21282759px;stroke-linecap:butt;stroke-linejoin:miter;stroke-opacity:1"
       d="m 106.56061,274.77609 -4.73829,8.93319 c 0,0 -9.476585,11.36951 0.33845,11.64021 9.81503,0.27071 14.21487,-0.8121 14.21487,-0.8121 0,0 8.12279,2.70702 0.16923,-11.91092 -7.95356,-14.61796 -4.39985,-6.76757 -4.39985,-6.76757 z"
       id="path818-6"
       inkscape:connector-curvature="0" />
    <path
       style="fill:#fff000;fill-opacity:1;stroke:#f1ff00;stroke-width:0.21436882;stroke-miterlimit:4;stroke-dasharray:none;stroke-opacity:1"
       d="m 99.926875,295.14746 c -0.97528,-0.42881 -1.86292,-1.62497 -1.85982,-2.50624 9e-4,-0.2582 0.19469,-1.13284 0.43063,-1.94364 0.31869,-1.09519 0.96494,-2.3131 2.513735,-4.7373 1.14662,-1.79472 2.94009,-4.88051 3.98548,-6.85732 1.81012,-3.42289 1.92615,-3.5877 2.43443,-3.45803 1.63047,0.41596 5.02968,0.982 5.15473,0.85837 0.0802,-0.0793 0.4727,0.38859 0.8722,1.03976 l 0.72637,1.18394 -0.8621,1.9574 c -0.47415,1.07657 -0.81786,2.0719 -0.76379,2.21183 0.0541,0.13993 0.35792,-0.33487 0.67524,-1.05513 0.31732,-0.72026 0.71138,-1.60267 0.87569,-1.96092 l 0.29874,-0.65137 1.32971,2.41093 c 3.81983,6.92586 5.07757,11.02239 3.86114,12.57591 -0.44301,0.56577 -0.57111,0.58615 -2.6653,0.4242 -6.58478,-0.50924 -8.44698,-3.13895 -5.93594,-8.38247 0.68432,-1.42898 0.6899,-2.00568 0.01,-0.9832 -0.56762,0.85304 -1.43485,3.67354 -1.43485,4.66661 0,1.08884 0.44923,2.5135 0.96207,3.05103 0.59968,0.62855 2.13312,1.43679 3.1255,1.64737 0.57919,0.12291 0.78672,0.26569 0.66626,0.45839 -0.11256,0.18005 -2.54579,0.31184 -6.82193,0.36949 -5.53481,0.0746 -6.8027,0.0212 -7.577705,-0.31961 z"
       id="path824-8"
       inkscape:connector-curvature="0" />
    <path
       style="fill:none;stroke:#000000;stroke-width:0.21282759px;stroke-linecap:butt;stroke-linejoin:miter;stroke-opacity:1"
       d="m 104.52991,279.37803 c 0,0 2.38698,3.5706 9.65472,-0.65103"
       id="path826-3"
       inkscape:connector-curvature="0" />
    <path
       style="fill:#b65500;fill-opacity:1;stroke:#f1ff00;stroke-width:0.21436882;stroke-miterlimit:4;stroke-dasharray:none;stroke-opacity:1"
       d="m 106.13364,280.2607 c -0.63236,-0.32971 -1.5226,-1.00502 -1.51848,-1.15186 0.002,-0.089 0.48034,-0.99918 1.06186,-2.0225 l 1.05731,-1.86059 2.87261,0.47899 2.87263,0.47899 0.63459,0.96281 c 0.34902,0.52954 0.63459,1.09856 0.63459,1.26448 0,0.35057 -1.24971,1.01781 -3.0148,1.60967 -1.1561,0.38765 -4.02961,0.53757 -4.60031,0.24001 z"
       id="path838-8"
       inkscape:connector-curvature="0" />
    <path
       style="fill:none;stroke:#000000;stroke-width:0.12198219px;stroke-linecap:butt;stroke-linejoin:miter;stroke-opacity:1"
       d="m 109.02427,277.41824 c -0.12041,-23.62049 0.12041,-24.37035 0.60205,-23.87044 0.48165,0.49991 -0.60205,23.87044 -0.60205,23.87044 z"
       id="path840-3"
       inkscape:connector-curvature="0" />
    <path
       style="fill:#b6ff00;fill-opacity:1;stroke:#f1ff00;stroke-width:0.12286555;stroke-miterlimit:4;stroke-dasharray:none;stroke-opacity:1"
       d="m 109.57284,258.3374 c 0.006,-0.14559 0.0343,-0.1752 0.0728,-0.0755 0.0348,0.0902 0.0305,0.19801 -0.01,0.23954 -0.04,0.0415 -0.0685,-0.0323 -0.0632,-0.16403 z"
       id="path842-3"
       inkscape:connector-curvature="0" />
    <path
       style="fill:#b6ff00;fill-opacity:1;stroke:#f1ff00;stroke-width:0.12286555;stroke-miterlimit:4;stroke-dasharray:none;stroke-opacity:1"
       d="m 109.10477,266.72121 c -0.0197,-8.9733 0.26078,-15.41587 0.5182,-11.90503 0.0491,0.6696 0.0551,1.62567 0.0132,2.12459 -0.0418,0.49893 -0.10603,2.53808 -0.14271,4.53145 -0.0367,1.99337 -0.13656,5.17088 -0.22196,7.06115 l -0.15528,3.43684 z"
       id="path844-3"
       inkscape:connector-curvature="0" />
    <path
       style="fill:#0dfe00;fill-opacity:1;stroke:#f1ff00;stroke-width:0.12286555;stroke-miterlimit:4;stroke-dasharray:none;stroke-opacity:1"
       d="m 109.2683,261.22227 c 0.0258,-3.72243 0.0929,-6.42566 0.16583,-6.68623 0.13284,-0.47444 0.057,6.53766 -0.11558,10.68546 -0.0623,1.49825 -0.0791,0.16256 -0.0503,-3.99923 z"
       id="path846-8"
       inkscape:connector-curvature="0" />
    <path
       style="fill:#0dfe00;fill-opacity:1;stroke:#f1ff00;stroke-width:0.12286555;stroke-miterlimit:4;stroke-dasharray:none;stroke-opacity:1"
       d="m 109.08502,266.53211 c 0.0223,-5.57733 0.18927,-12.02854 0.32161,-12.42755 0.15181,-0.4577 0.24871,0.75051 0.21504,2.68105 -0.0817,4.6866 -0.10655,4.97776 -0.18626,2.18709 -0.0602,-2.10726 -0.0728,-1.70085 -0.0638,2.0621 0.0106,4.47246 -0.12986,10.3671 -0.25017,10.49636 -0.0311,0.0335 -0.0475,-2.2161 -0.0364,-4.99905 z"
       id="path848-0"
       inkscape:connector-curvature="0" />
    <path
       style="fill:#0dfe00;fill-opacity:1;stroke:#f1ff00;stroke-width:0.12286555;stroke-miterlimit:4;stroke-dasharray:none;stroke-opacity:1"
       d="m 109.2349,257.9104 c 0,-0.30932 0.0235,-0.43586 0.0522,-0.2812 0.0287,0.15466 0.0287,0.40774 0,0.56239 -0.0287,0.15466 -0.0522,0.0281 -0.0522,-0.28119 z"
       id="path850-4"
       inkscape:connector-curvature="0" />
    <path
       style="fill:#0dfe00;fill-opacity:1;stroke:#f1ff00;stroke-width:0.12286555;stroke-miterlimit:4;stroke-dasharray:none;stroke-opacity:1"
       d="m 109.34176,262.52071 c -0.0106,-2.10406 -0.0549,-4.09528 -0.0984,-4.42493 -0.0539,-0.4078 -0.0385,-0.57329 0.0481,-0.51777 0.20211,0.12965 0.28145,2.89327 0.171,5.95631 l -0.1014,2.81197 z"
       id="path852-7"
       inkscape:connector-curvature="0" />
    <path
       style="fill:none;stroke:#000000;stroke-width:0.12198219px;stroke-linecap:butt;stroke-linejoin:miter;stroke-opacity:1"
       d="m 109.2349,257.9104 13.2987,-4.16472 c 13.63665,-3.73772 -0.12041,-1.12479 -0.12041,-1.12479 l -12.52276,1.87465 -13.606455,-2.49953 c 0,0 -15.26202,0.0116 -1.32453,2.74948"
       id="path856-6"
       inkscape:connector-curvature="0" />
    <path
       style="fill:none;stroke:#000000;stroke-width:0.12198219px;stroke-linecap:butt;stroke-linejoin:miter;stroke-opacity:1"
       d="M 109.2349,257.9104 95.297395,255.17249"
       id="path858-8"
       inkscape:connector-curvature="0" />
    <path
       style="fill:#008000;fill-opacity:1;stroke:#f1ff00;stroke-width:0.12286555;stroke-miterlimit:4;stroke-dasharray:none;stroke-opacity:1"
       d="m 109.80416,256.10063 c 0,-1.38574 0.009,-1.43703 0.27092,-1.49874 0.14901,-0.0351 2.92599,-0.45883 6.17107,-0.94154 3.24508,-0.48271 6.84978,-1.04268 8.01045,-1.24439 1.16065,-0.2017 2.4882,-0.39841 2.95007,-0.43713 l 0.83977,-0.0704 -0.66226,0.25491 c -0.36424,0.1402 -1.55631,0.51163 -2.64904,0.82539 -1.09274,0.31377 -4.84728,1.46514 -8.34343,2.55861 -3.49615,1.09347 -6.4086,1.98812 -6.4721,1.98812 -0.067,0 -0.11545,-0.60266 -0.11545,-1.43484 z"
       id="path862-9"
       inkscape:connector-curvature="0" />
    <path
       style="fill:#008000;fill-opacity:1;stroke:#f1ff00;stroke-width:0.12286555;stroke-miterlimit:4;stroke-dasharray:none;stroke-opacity:1"
       d="m 109.9505,256.08159 0.0343,-1.3485 4.3348,-0.65911 c 2.38414,-0.36252 6.14165,-0.9451 8.35003,-1.29463 2.20838,-0.34954 4.04614,-0.60342 4.08395,-0.5642 0.0378,0.0392 0.0329,0.0713 -0.0109,0.0713 -0.11783,0 -13.5621,4.10772 -16.61151,5.07542 -0.19843,0.063 -0.21226,-0.0351 -0.18061,-1.2803 z"
       id="path864-0"
       inkscape:connector-curvature="0" />
    <path
       style="fill:none;stroke:#000000;stroke-width:0.12198219px;stroke-linecap:butt;stroke-linejoin:miter;stroke-opacity:1"
       d="m 94.959445,254.74549 0.33795,0.427"
       id="path866-6"
       inkscape:connector-curvature="0" />
    <path
       style="fill:#008000;fill-opacity:1;stroke:#f1ff00;stroke-width:0.12286555;stroke-miterlimit:4;stroke-dasharray:none;stroke-opacity:1"
       d="m 101.89308,256.35925 c -4.740735,-0.94236 -6.468185,-1.33184 -6.645405,-1.4983 -0.14775,-0.13879 -0.86141,-0.35931 -1.86329,-0.57577 -2.40313,-0.5192 -4.17053,-1.10645 -4.17053,-1.38572 0,-0.35575 2.93147,-0.73374 5.71952,-0.73749 1.44165,-0.002 2.06012,0.0883 7.826735,1.14173 3.44375,0.62911 6.27428,1.15372 6.29006,1.16579 0.0158,0.0121 -0.006,0.73498 -0.0487,1.60646 l -0.0774,1.5845 -0.31255,-0.0139 c -0.1719,-0.008 -3.19522,-0.58693 -6.71848,-1.28728 z"
       id="path868-8"
       inkscape:connector-curvature="0" />
    <path
       style="fill:#d40000;stroke:#000000;stroke-width:0.21282759px;stroke-linecap:butt;stroke-linejoin:miter;stroke-opacity:1"
       d="m 151.79426,273.97784 -4.73829,8.93319 c 0,0 -9.47658,11.36951 0.33845,11.64021 9.81503,0.27071 14.21487,-0.8121 14.21487,-0.8121 0,0 8.12279,2.70702 0.16923,-11.91092 -7.95356,-14.61796 -4.39985,-6.76757 -4.39985,-6.76757 z"
       id="path818-7"
       inkscape:connector-curvature="0" />
    <path
       style="fill:#d40000;fill-opacity:1;stroke:#f1ff00;stroke-width:0.21436882;stroke-miterlimit:4;stroke-dasharray:none;stroke-opacity:1"
       d="m 144.93675,293.8474 c -0.97528,-0.42881 -1.86292,-1.62497 -1.85982,-2.50624 9e-4,-0.2582 0.19469,-1.13284 0.43063,-1.94364 0.31869,-1.09519 0.96494,-2.3131 2.51373,-4.7373 1.14662,-1.79472 2.94009,-4.88051 3.98548,-6.85732 1.81012,-3.42289 1.92615,-3.5877 2.43443,-3.45803 1.63047,0.41596 5.02968,0.982 5.15473,0.85837 0.0802,-0.0793 0.4727,0.38859 0.8722,1.03976 l 0.72637,1.18394 -0.8621,1.9574 c -0.47415,1.07657 -0.81786,2.0719 -0.76379,2.21183 0.0541,0.13993 0.35792,-0.33487 0.67524,-1.05513 0.31732,-0.72026 0.71138,-1.60267 0.87569,-1.96092 l 0.29874,-0.65137 1.32971,2.41093 c 3.81983,6.92586 5.07757,11.02239 3.86114,12.57591 -0.44301,0.56577 -0.57111,0.58615 -2.6653,0.4242 -6.58478,-0.50924 -8.44698,-3.13895 -5.93594,-8.38247 0.68432,-1.42898 0.6899,-2.00568 0.009,-0.9832 -0.56762,0.85304 -1.43485,3.67354 -1.43485,4.66661 0,1.08884 0.44923,2.5135 0.96207,3.05103 0.59968,0.62855 2.13312,1.43679 3.1255,1.64737 0.57919,0.12291 0.78672,0.26569 0.66626,0.45839 -0.11256,0.18005 -2.54579,0.31184 -6.82193,0.36949 -5.53481,0.0746 -6.8027,0.0212 -7.5777,-0.31961 z"
       id="path824-9"
       inkscape:connector-curvature="0" />
    <path
       style="fill:#d40000;stroke:#000000;stroke-width:0.21282759px;stroke-linecap:butt;stroke-linejoin:miter;stroke-opacity:1"
       d="m 149.76356,278.57978 c 0,0 2.38698,3.5706 9.65472,-0.65103"
       id="path826-0"
       inkscape:connector-curvature="0" />
    <path
       style="fill:#d40000;fill-opacity:1;stroke:#f1ff00;stroke-width:0.21436882;stroke-miterlimit:4;stroke-dasharray:none;stroke-opacity:1"
       d="m 151.36729,279.46245 c -0.63236,-0.32971 -1.5226,-1.00502 -1.51848,-1.15186 0.002,-0.089 0.48034,-0.99918 1.06186,-2.0225 l 1.05731,-1.86059 2.87261,0.47899 2.87263,0.47899 0.63459,0.96281 c 0.34902,0.52954 0.63459,1.09856 0.63459,1.26448 0,0.35057 -1.24971,1.01781 -3.0148,1.60967 -1.1561,0.38765 -4.02961,0.53757 -4.60031,0.24001 z"
       id="path838-3"
       inkscape:connector-curvature="0" />
    <path
       style="fill:#d40000;stroke:#000000;stroke-width:0.12198219px;stroke-linecap:butt;stroke-linejoin:miter;stroke-opacity:1"
       d="m 154.25792,276.61999 c -0.12041,-23.62049 0.12041,-24.37035 0.60205,-23.87044 0.48165,0.49991 -0.60205,23.87044 -0.60205,23.87044 z"
       id="path840-33"
       inkscape:connector-curvature="0" />
    <path
       style="fill:#d40000;fill-opacity:1;stroke:#f1ff00;stroke-width:0.12286555;stroke-miterlimit:4;stroke-dasharray:none;stroke-opacity:1"
       d="m 154.80649,257.53915 c 0.006,-0.14559 0.0343,-0.1752 0.0727,-0.0755 0.0348,0.0902 0.0305,0.19801 -0.01,0.23954 -0.04,0.0415 -0.0685,-0.0323 -0.0632,-0.16403 z"
       id="path842-7"
       inkscape:connector-curvature="0" />
    <path
       style="fill:#d40000;fill-opacity:1;stroke:#f1ff00;stroke-width:0.12286555;stroke-miterlimit:4;stroke-dasharray:none;stroke-opacity:1"
       d="m 154.33842,265.92296 c -0.0196,-8.9733 0.26078,-15.41587 0.5182,-11.90503 0.0491,0.6696 0.0551,1.62567 0.0132,2.12459 -0.0418,0.49893 -0.10603,2.53808 -0.14271,4.53145 -0.0367,1.99337 -0.13656,5.17088 -0.22196,7.06115 l -0.15528,3.43684 z"
       id="path844-32"
       inkscape:connector-curvature="0" />
    <path
       style="fill:#d40000;fill-opacity:1;stroke:#f1ff00;stroke-width:0.12286555;stroke-miterlimit:4;stroke-dasharray:none;stroke-opacity:1"
       d="m 154.50195,260.42402 c 0.0258,-3.72243 0.0929,-6.42566 0.16583,-6.68623 0.13284,-0.47444 0.057,6.53766 -0.11558,10.68546 -0.0623,1.49825 -0.0791,0.16256 -0.0503,-3.99923 z"
       id="path846-6"
       inkscape:connector-curvature="0" />
    <path
       style="fill:#d40000;fill-opacity:1;stroke:#f1ff00;stroke-width:0.12286555;stroke-miterlimit:4;stroke-dasharray:none;stroke-opacity:1"
       d="m 154.31867,265.73386 c 0.0223,-5.57733 0.18927,-12.02854 0.32161,-12.42755 0.15181,-0.4577 0.24871,0.75051 0.21504,2.68105 -0.0817,4.6866 -0.10655,4.97776 -0.18626,2.18709 -0.0602,-2.10726 -0.0728,-1.70085 -0.0638,2.0621 0.0106,4.47246 -0.12986,10.3671 -0.25017,10.49636 -0.0311,0.0335 -0.0475,-2.2161 -0.0364,-4.99905 z"
       id="path848-5"
       inkscape:connector-curvature="0" />
    <path
       style="fill:#d40000;fill-opacity:1;stroke:#f1ff00;stroke-width:0.12286555;stroke-miterlimit:4;stroke-dasharray:none;stroke-opacity:1"
       d="m 154.46855,257.11215 c 0,-0.30932 0.0235,-0.43586 0.0522,-0.2812 0.0287,0.15466 0.0287,0.40774 0,0.56239 -0.0287,0.15466 -0.0522,0.0281 -0.0522,-0.28119 z"
       id="path850-2"
       inkscape:connector-curvature="0" />
    <path
       style="fill:#d40000;fill-opacity:1;stroke:#f1ff00;stroke-width:0.12286555;stroke-miterlimit:4;stroke-dasharray:none;stroke-opacity:1"
       d="m 154.57541,261.72246 c -0.0106,-2.10406 -0.0549,-4.09528 -0.0984,-4.42493 -0.0538,-0.4078 -0.0385,-0.57329 0.0481,-0.51777 0.20211,0.12965 0.28145,2.89327 0.171,5.95631 l -0.1014,2.81197 z"
       id="path852-6"
       inkscape:connector-curvature="0" />
    <path
       style="fill:#d40000;stroke:#000000;stroke-width:0.12198219px;stroke-linecap:butt;stroke-linejoin:miter;stroke-opacity:1"
       d="m 154.46855,257.11215 13.2987,-4.16472 c 13.63665,-3.73772 -0.12041,-1.12479 -0.12041,-1.12479 l -12.52276,1.87465 -13.60645,-2.49953 c 0,0 -15.26202,0.0116 -1.32453,2.74948"
       id="path856-5"
       inkscape:connector-curvature="0" />
    <path
       style="fill:#d40000;stroke:#000000;stroke-width:0.12198219px;stroke-linecap:butt;stroke-linejoin:miter;stroke-opacity:1"
       d="m 154.46855,257.11215 -13.9375,-2.73791"
       id="path858-87"
       inkscape:connector-curvature="0" />
    <path
       style="fill:#d40000;fill-opacity:1;stroke:#f1ff00;stroke-width:0.12286555;stroke-miterlimit:4;stroke-dasharray:none;stroke-opacity:1"
       d="m 155.03781,255.30238 c 0,-1.38574 0.009,-1.43703 0.27092,-1.49874 0.14901,-0.0351 2.92599,-0.45883 6.17107,-0.94154 3.24508,-0.48271 6.84978,-1.04268 8.01045,-1.24439 1.16065,-0.2017 2.4882,-0.39841 2.95007,-0.43713 l 0.83977,-0.0704 -0.66226,0.25491 c -0.36424,0.1402 -1.55631,0.51163 -2.64904,0.82539 -1.09274,0.31377 -4.84728,1.46514 -8.34343,2.55861 -3.49615,1.09347 -6.4086,1.98812 -6.4721,1.98812 -0.067,0 -0.11545,-0.60266 -0.11545,-1.43484 z"
       id="path862-96"
       inkscape:connector-curvature="0" />
    <path
       style="fill:#d40000;fill-opacity:1;stroke:#f1ff00;stroke-width:0.12286555;stroke-miterlimit:4;stroke-dasharray:none;stroke-opacity:1"
       d="m 155.18415,255.28334 0.0343,-1.3485 4.3348,-0.65911 c 2.38414,-0.36252 6.14165,-0.9451 8.35003,-1.29463 2.20838,-0.34954 4.04614,-0.60342 4.08395,-0.5642 0.0378,0.0392 0.0329,0.0713 -0.0109,0.0713 -0.11783,0 -13.5621,4.10772 -16.61151,5.07542 -0.19843,0.063 -0.21226,-0.0351 -0.18061,-1.2803 z"
       id="path864-04"
       inkscape:connector-curvature="0" />
    <path
       style="fill:#d40000;stroke:#000000;stroke-width:0.12198219px;stroke-linecap:butt;stroke-linejoin:miter;stroke-opacity:1"
       d="m 140.1931,253.94724 0.33795,0.427"
       id="path866-1"
       inkscape:connector-curvature="0" />
    <path
       style="fill:#d40000;fill-opacity:1;stroke:#f1ff00;stroke-width:0.12286555;stroke-miterlimit:4;stroke-dasharray:none;stroke-opacity:1"
       d="m 147.12673,255.561 c -4.74073,-0.94236 -6.46818,-1.33184 -6.6454,-1.4983 -0.14775,-0.13879 -0.86141,-0.35931 -1.86329,-0.57577 -2.40313,-0.5192 -4.17053,-1.10645 -4.17053,-1.38572 0,-0.35575 2.93147,-0.73374 5.71952,-0.73749 1.44165,-0.002 2.06012,0.0883 7.82673,1.14173 3.44375,0.62911 6.27428,1.15372 6.29006,1.16579 0.0158,0.0121 -0.006,0.73498 -0.0487,1.60646 l -0.0774,1.5845 -0.31255,-0.0139 c -0.1719,-0.008 -3.19522,-0.58693 -6.71848,-1.28728 z"
       id="path868-0"
       inkscape:connector-curvature="0" />
    <path
       style="fill:none;stroke:#000000;stroke-width:0.21282759px;stroke-linecap:butt;stroke-linejoin:miter;stroke-opacity:1"
       d="m 22.213137,274.77609 -4.738289,8.93319 c 0,0 -9.4765833,11.36951 0.338449,11.64021 9.81503,0.27071 14.214873,-0.8121 14.214873,-0.8121 0,0 8.122785,2.70702 0.169227,-11.91092 -7.95356,-14.61796 -4.399844,-6.76757 -4.399844,-6.76757 z"
       id="path818-4"
       inkscape:connector-curvature="0" />
    <path
       style="fill:#fff000;fill-opacity:1;stroke:#f1ff00;stroke-width:0.21436882;stroke-miterlimit:4;stroke-dasharray:none;stroke-opacity:1"
       d="m 15.35563,294.64565 c -0.975279,-0.42881 -1.862922,-1.62497 -1.859819,-2.50624 9e-4,-0.2582 0.194691,-1.13284 0.430626,-1.94364 0.318689,-1.09519 0.96494,-2.3131 2.513737,-4.7373 1.14662,-1.79472 2.940086,-4.88051 3.985478,-6.85732 1.810121,-3.42289 1.926152,-3.5877 2.434432,-3.45803 1.630462,0.41596 5.029674,0.982 5.154728,0.85837 0.08021,-0.0793 0.472697,0.38859 0.872196,1.03976 l 0.726371,1.18394 -0.862096,1.9574 c -0.474154,1.07657 -0.81786,2.0719 -0.763795,2.21183 0.05406,0.13993 0.35792,-0.33487 0.675243,-1.05513 0.317319,-0.72026 0.711379,-1.60267 0.87569,-1.96092 l 0.298742,-0.65137 1.329706,2.41093 c 3.819827,6.92586 5.077571,11.02239 3.861136,12.57591 -0.443008,0.56577 -0.571103,0.58615 -2.665293,0.4242 -6.584785,-0.50924 -8.446978,-3.13895 -5.935938,-8.38247 0.684317,-1.42898 0.689897,-2.00568 0.0095,-0.9832 -0.567626,0.85304 -1.434854,3.67354 -1.434854,4.66661 0,1.08884 0.449233,2.5135 0.962071,3.05103 0.599683,0.62855 2.133117,1.43679 3.125503,1.64737 0.579188,0.12291 0.786712,0.26569 0.666252,0.45839 -0.112555,0.18005 -2.545786,0.31184 -6.821928,0.36949 -5.534807,0.0746 -6.802697,0.0212 -7.577703,-0.31961 z"
       id="path824-87"
       inkscape:connector-curvature="0" />
    <path
       style="fill:none;stroke:#000000;stroke-width:0.21282759px;stroke-linecap:butt;stroke-linejoin:miter;stroke-opacity:1"
       d="m 20.182443,279.37803 c 0,0 2.386977,3.5706 9.65472,-0.65103"
       id="path826-08"
       inkscape:connector-curvature="0" />
    <path
       style="fill:#b65500;fill-opacity:1;stroke:#f1ff00;stroke-width:0.21436882;stroke-miterlimit:4;stroke-dasharray:none;stroke-opacity:1"
       d="m 21.786169,280.2607 c -0.632357,-0.32971 -1.5226,-1.00502 -1.518478,-1.15186 0.0025,-0.089 0.480336,-0.99918 1.061855,-2.0225 l 1.057311,-1.86059 2.872617,0.47899 2.872622,0.47899 0.634592,0.96281 c 0.349023,0.52954 0.634592,1.09856 0.634592,1.26448 0,0.35057 -1.249707,1.01781 -3.014804,1.60967 -1.156095,0.38765 -4.029604,0.53757 -4.600307,0.24001 z"
       id="path838-6"
       inkscape:connector-curvature="0" />
    <path
       style="fill:none;stroke:#000000;stroke-width:0.12198219px;stroke-linecap:butt;stroke-linejoin:miter;stroke-opacity:1"
       d="m 24.676797,277.41824 c -0.120411,-23.62049 0.120411,-24.37035 0.602055,-23.87044 0.481644,0.49991 -0.602055,23.87044 -0.602055,23.87044 z"
       id="path840-2"
       inkscape:connector-curvature="0" />
    <path
       style="fill:#b6ff00;fill-opacity:1;stroke:#f1ff00;stroke-width:0.12286555;stroke-miterlimit:4;stroke-dasharray:none;stroke-opacity:1"
       d="m 25.225369,258.3374 c 0.0058,-0.14559 0.03431,-0.1752 0.07275,-0.0755 0.03478,0.0902 0.03051,0.19801 -0.0095,0.23954 -0.04001,0.0415 -0.06847,-0.0323 -0.06324,-0.16403 z"
       id="path842-4"
       inkscape:connector-curvature="0" />
    <path
       style="fill:#b6ff00;fill-opacity:1;stroke:#f1ff00;stroke-width:0.12286555;stroke-miterlimit:4;stroke-dasharray:none;stroke-opacity:1"
       d="m 24.757304,266.72121 c -0.01965,-8.9733 0.260778,-15.41587 0.518192,-11.90503 0.0491,0.6696 0.05506,1.62567 0.01325,2.12459 -0.04181,0.49893 -0.106027,2.53808 -0.142704,4.53145 -0.03668,1.99337 -0.136559,5.17088 -0.221962,7.06115 l -0.155276,3.43684 z"
       id="path844-7"
       inkscape:connector-curvature="0" />
    <path
       style="fill:#0dfe00;fill-opacity:1;stroke:#f1ff00;stroke-width:0.12286555;stroke-miterlimit:4;stroke-dasharray:none;stroke-opacity:1"
       d="m 24.920833,261.22227 c 0.02582,-3.72243 0.09287,-6.42566 0.165826,-6.68623 0.132845,-0.47444 0.057,6.53766 -0.115578,10.68546 -0.06234,1.49825 -0.07912,0.16256 -0.05025,-3.99923 z"
       id="path846-9"
       inkscape:connector-curvature="0" />
    <path
       style="fill:#0dfe00;fill-opacity:1;stroke:#f1ff00;stroke-width:0.12286555;stroke-miterlimit:4;stroke-dasharray:none;stroke-opacity:1"
       d="m 24.737552,266.53211 c 0.02232,-5.57733 0.18927,-12.02854 0.32161,-12.42755 0.151803,-0.4577 0.248707,0.75051 0.215034,2.68105 -0.08175,4.6866 -0.106544,4.97776 -0.186257,2.18709 -0.06019,-2.10726 -0.07277,-1.70085 -0.06383,2.0621 0.01063,4.47246 -0.129863,10.3671 -0.250168,10.49636 -0.03115,0.0335 -0.04753,-2.2161 -0.03639,-4.99905 z"
       id="path848-3"
       inkscape:connector-curvature="0" />
    <path
       style="fill:#0dfe00;fill-opacity:1;stroke:#f1ff00;stroke-width:0.12286555;stroke-miterlimit:4;stroke-dasharray:none;stroke-opacity:1"
       d="m 24.887426,257.9104 c 0,-0.30932 0.02348,-0.43586 0.05218,-0.2812 0.0287,0.15466 0.0287,0.40774 0,0.56239 -0.0287,0.15466 -0.05218,0.0281 -0.05218,-0.28119 z"
       id="path850-9"
       inkscape:connector-curvature="0" />
    <path
       style="fill:#0dfe00;fill-opacity:1;stroke:#f1ff00;stroke-width:0.12286555;stroke-miterlimit:4;stroke-dasharray:none;stroke-opacity:1"
       d="m 24.994292,262.52071 c -0.01059,-2.10406 -0.05487,-4.09528 -0.0984,-4.42493 -0.05385,-0.4078 -0.03849,-0.57329 0.04806,-0.51777 0.202108,0.12965 0.281446,2.89327 0.170994,5.95631 l -0.101397,2.81197 z"
       id="path852-2"
       inkscape:connector-curvature="0" />
    <path
       style="fill:none;stroke:#000000;stroke-width:0.12198219px;stroke-linecap:butt;stroke-linejoin:miter;stroke-opacity:1"
       d="m 24.887426,257.9104 13.298701,-4.16472 c 13.636649,-3.73772 -0.120411,-1.12479 -0.120411,-1.12479 l -12.522755,1.87465 -13.606456,-2.49953 c 0,0 -15.2620204,0.0116 -1.324523,2.74948"
       id="path856-8"
       inkscape:connector-curvature="0" />
    <path
       style="fill:none;stroke:#000000;stroke-width:0.12198219px;stroke-linecap:butt;stroke-linejoin:miter;stroke-opacity:1"
       d="M 24.887426,257.9104 10.949928,255.17249"
       id="path858-3"
       inkscape:connector-curvature="0" />
    <path
       style="fill:#008000;fill-opacity:1;stroke:#f1ff00;stroke-width:0.12286555;stroke-miterlimit:4;stroke-dasharray:none;stroke-opacity:1"
       d="m 25.456685,256.10063 c 0,-1.38574 0.0093,-1.43703 0.270925,-1.49874 0.149009,-0.0351 2.92599,-0.45883 6.17107,-0.94154 3.24508,-0.48271 6.84978,-1.04268 8.010446,-1.24439 1.160658,-0.2017 2.4882,-0.39841 2.95007,-0.43713 l 0.839769,-0.0704 -0.66226,0.25491 c -0.364239,0.1402 -1.556309,0.51163 -2.64904,0.82539 -1.092732,0.31377 -4.847273,1.46514 -8.343427,2.55861 -3.496153,1.09347 -6.408596,1.98812 -6.472097,1.98812 -0.06696,0 -0.115456,-0.60266 -0.115456,-1.43484 z"
       id="path862-0"
       inkscape:connector-curvature="0" />
    <path
       style="fill:#008000;fill-opacity:1;stroke:#f1ff00;stroke-width:0.12286555;stroke-miterlimit:4;stroke-dasharray:none;stroke-opacity:1"
       d="m 25.60303,256.08159 0.03427,-1.3485 4.334801,-0.65911 c 2.384139,-0.36252 6.141651,-0.9451 8.350028,-1.29463 2.208376,-0.34954 4.046145,-0.60342 4.083947,-0.5642 0.0378,0.0392 0.0329,0.0713 -0.0109,0.0713 -0.11783,0 -13.562095,4.10772 -16.611504,5.07542 -0.198435,0.063 -0.212265,-0.0351 -0.180617,-1.2803 z"
       id="path864-1"
       inkscape:connector-curvature="0" />
    <path
       style="fill:none;stroke:#000000;stroke-width:0.12198219px;stroke-linecap:butt;stroke-linejoin:miter;stroke-opacity:1"
       d="m 10.611982,254.74549 0.337945,0.427"
       id="path866-7"
       inkscape:connector-curvature="0" />
    <path
       style="fill:#008000;fill-opacity:1;stroke:#f1ff00;stroke-width:0.12286555;stroke-miterlimit:4;stroke-dasharray:none;stroke-opacity:1"
       d="m 17.545613,256.35925 c -4.740735,-0.94236 -6.468184,-1.33184 -6.645406,-1.4983 -0.147751,-0.13879 -0.861407,-0.35931 -1.8632913,-0.57577 -2.403126,-0.5192 -4.170531,-1.10645 -4.170531,-1.38572 0,-0.35575 2.9314759,-0.73374 5.7195273,-0.73749 1.441652,-0.002 2.060119,0.0883 7.826723,1.14173 3.443758,0.62911 6.274287,1.15372 6.290066,1.16579 0.01578,0.0121 -0.0061,0.73498 -0.04868,1.60646 l -0.07737,1.5845 -0.312549,-0.0139 c -0.171902,-0.008 -3.19522,-0.58693 -6.718482,-1.28728 z"
       id="path868-89"
       inkscape:connector-curvature="0" />
    <path
       style="fill:#d40000;fill-opacity:1;stroke:#f1ff00;stroke-width:1.00724161;stroke-miterlimit:4;stroke-dasharray:none;stroke-opacity:1"
       d="M 65.847363,299.13458 C 54.508569,296.78516 42.063552,293.9166 38.191769,292.76 c -3.871783,-1.15659 -9.754882,-2.86272 -13.073553,-3.79139 -5.613524,-1.57085 -5.858771,-1.75896 -3.519803,-2.69969 1.38278,-0.55616 8.397244,-1.0343 15.587698,-1.06253 11.249986,-0.0442 15.98437,0.51094 33.941835,3.97972 11.477554,2.21708 21.148677,4.31145 21.491384,4.65416 0.342706,0.3427 0.314583,2.68046 -0.0625,5.19502 -0.854774,5.70006 0.300248,5.69577 -26.709465,0.0993 z"
       id="path1009"
       inkscape:connector-curvature="0"
       transform="matrix(0.26458333,0,0,0.26458333,0,177)" />
    <path
       style="fill:#00ffff;fill-opacity:1;stroke:#f1ff00;stroke-width:1.00724161;stroke-miterlimit:4;stroke-dasharray:none;stroke-opacity:1"
       d="m 97.022759,298.59808 c 0,-3.33816 0.376034,-4.08377 2.262731,-4.48664 7.41402,-1.58311 50.33254,-7.63458 50.80384,-7.16329 0.31268,0.31269 -0.0474,0.56853 -0.80022,0.56853 -0.75281,0 -12.35394,3.39409 -25.78028,7.54243 -13.42635,4.14834 -24.878308,7.54244 -25.448805,7.54244 -0.570496,0 -1.037266,-1.80156 -1.037266,-4.00347 z"
       id="path1011"
       inkscape:connector-curvature="0"
       transform="matrix(0.26458333,0,0,0.26458333,0,177)" />
    <path
       style="fill:#00ffff;fill-opacity:1;stroke:#f1ff00;stroke-width:1.00724161;stroke-miterlimit:4;stroke-dasharray:none;stroke-opacity:1"
       d="m 384.64093,299.13458 c -11.33879,-2.34942 -23.78381,-5.21798 -27.65559,-6.37458 -3.87178,-1.15659 -9.75488,-2.86272 -13.07355,-3.79139 -5.61353,-1.57085 -5.85877,-1.75896 -3.51981,-2.69969 1.38278,-0.55616 8.39725,-1.0343 15.5877,-1.06253 11.24999,-0.0442 15.98437,0.51094 33.94184,3.97972 11.47755,2.21708 21.14867,4.31145 21.49138,4.65416 0.34271,0.3427 0.31458,2.68046 -0.0625,5.19502 -0.85477,5.70006 0.30025,5.69577 -26.70947,0.0993 z"
       id="path1013"
       inkscape:connector-curvature="0"
       transform="matrix(0.26458333,0,0,0.26458333,0,177)" />
    <path
       style="fill:#00ffff;fill-opacity:1;stroke:#f1ff00;stroke-width:1.00724161;stroke-miterlimit:4;stroke-dasharray:none;stroke-opacity:1"
       d=""
       id="path1015"
       inkscape:connector-curvature="0"
       transform="matrix(0.26458333,0,0,0.26458333,0,177)" />
    <path
       style="fill:#00ffff;fill-opacity:1;stroke:#f1ff00;stroke-width:1.00724161;stroke-miterlimit:4;stroke-dasharray:none;stroke-opacity:1"
       d="m 415.81633,298.59808 c 0,-3.33816 0.37603,-4.08377 2.26273,-4.48664 7.41402,-1.58311 50.33254,-7.63458 50.80384,-7.16329 0.31269,0.31269 -0.0474,0.56853 -0.80022,0.56853 -0.75281,0 -12.35393,3.39409 -25.78028,7.54243 -13.42635,4.14834 -24.87831,7.54244 -25.4488,7.54244 -0.5705,0 -1.03727,-1.80156 -1.03727,-4.00347 z"
       id="path1017"
       inkscape:connector-curvature="0"
       transform="matrix(0.26458333,0,0,0.26458333,0,177)" />
    <path
       style="fill:#00ff00;fill-opacity:1;stroke:#f1ff00;stroke-width:1.00724161;stroke-miterlimit:4;stroke-dasharray:none;stroke-opacity:1"
       d="m 416.82199,298.65495 c 0,-1.73587 0.56568,-3.35453 1.25707,-3.59701 2.03627,-0.71417 37.09209,-5.731 37.46192,-5.36118 0.18587,0.18587 -7.88419,2.78309 -17.93345,5.77159 -10.04927,2.98851 -18.83708,5.63819 -19.52847,5.88819 -0.83518,0.30199 -1.25707,-0.60471 -1.25707,-2.70159 z"
       id="path1019"
       inkscape:connector-curvature="0"
       transform="matrix(0.26458333,0,0,0.26458333,0,177)" />
    <path
       style="fill:#00ff00;fill-opacity:1;stroke:#f1ff00;stroke-width:1.00724161;stroke-miterlimit:4;stroke-dasharray:none;stroke-opacity:1"
       d=""
       id="path1021"
       inkscape:connector-curvature="0"
       transform="matrix(0.26458333,0,0,0.26458333,0,177)" />
    <path
       style="fill:#00ff00;fill-opacity:1;stroke:#f1ff00;stroke-width:1.00724161;stroke-miterlimit:4;stroke-dasharray:none;stroke-opacity:1"
       d="m 98.028417,298.65495 c 0,-1.73587 0.565683,-3.35453 1.257073,-3.59701 2.03627,-0.71417 37.09209,-5.731 37.46192,-5.36118 0.18587,0.18587 -7.88419,2.78309 -17.93345,5.77159 -10.04927,2.98851 -18.83708,5.63819 -19.52847,5.88819 -0.835181,0.30199 -1.257073,-0.60471 -1.257073,-2.70159 z"
       id="path1023"
       inkscape:connector-curvature="0"
       transform="matrix(0.26458333,0,0,0.26458333,0,177)" />
    <path
       style="fill:#00ff00;fill-opacity:1;stroke:#f1ff00;stroke-width:1.00724161;stroke-miterlimit:4;stroke-dasharray:none;stroke-opacity:1"
       d="m 83.949206,301.89138 c -18.145655,-3.14873 -59.613848,-13.27556 -61.228638,-14.95247 -0.340629,-0.35373 7.30023,-0.43366 16.979688,-0.17762 14.563436,0.38523 20.389197,1.02639 33.775332,3.71714 8.896975,1.78838 16.763055,3.61423 17.48018,4.05743 0.901237,0.557 1.093579,1.92673 0.622883,4.43576 -0.713206,3.80171 -1.285253,4.02063 -7.629445,2.91976 z"
       id="path1025"
       inkscape:connector-curvature="0"
       transform="matrix(0.26458333,0,0,0.26458333,0,177)" />
    <path
       style="fill:#00ff00;fill-opacity:1;stroke:#f1ff00;stroke-width:1.00724161;stroke-miterlimit:4;stroke-dasharray:none;stroke-opacity:1"
       d="m 76.406771,299.60438 c -4.978007,-1.00209 -17.87557,-4.01863 -28.661251,-6.70343 l -19.61033,-4.88144 8.045263,-0.30744 c 4.424895,-0.16909 12.56744,0.18034 18.094545,0.77651 11.461996,1.23633 34.766378,5.80994 36.087071,7.08229 0.48496,0.46721 0.589475,2.01397 0.232255,3.43725 -0.775397,3.08943 -1.625029,3.12513 -14.187553,0.59626 z"
       id="path1027"
       inkscape:connector-curvature="0"
       transform="matrix(0.26458333,0,0,0.26458333,0,177)" />
    <path
       style="fill:#f4eed7;stroke:#000000;stroke-width:0.26458332px;stroke-linecap:butt;stroke-linejoin:miter;stroke-opacity:1"
       d="m 203.81753,242.45353 -0.26608,25.80979 29.00276,-1.06432 -0.79824,-26.07587 z"
       id="path1029"
       inkscape:connector-curvature="0" />
    <text
       xml:space="preserve"
       style="font-style:normal;font-weight:normal;font-size:10.58333302px;line-height:1.25;font-family:sans-serif;letter-spacing:0px;word-spacing:0px;fill:#000000;fill-opacity:1;stroke:none;stroke-width:0.26458332"
       x="208.60698"
       y="253.36282"
       id="text1033"><tspan
         sodipodi:role="line"
         id="tspan1031"
         x="208.60698"
         y="262.72659"
         style="stroke-width:0.26458332" /></text>
    <text
       xml:space="preserve"
       style="font-style:normal;font-weight:normal;font-size:10.58333302px;line-height:1.25;font-family:sans-serif;letter-spacing:0px;word-spacing:0px;fill:#dcf5ff;fill-opacity:1;stroke:none;stroke-width:0.26458332;"
       x="197.43159"
       y="277.84222"
       id="text1037"><tspan
         sodipodi:role="line"
         id="tspan1035"
         x="197.43159"
         y="277.84222"
         style="stroke-width:0.26458332;fill:#dcf5ff;fill-opacity:1;">arduino</tspan></text>
    <path
       style="fill:#c87137;stroke:#000000;stroke-width:0.26458332px;stroke-linecap:butt;stroke-linejoin:miter;stroke-opacity:1"
       d="m 220.31452,241.65529 -1.06432,-28.20452 -210.7356295,-6.91808 -0.2660803,3.72512 204.8818598,5.32161 1.59648,26.87411"
       id="path1039"
       inkscape:connector-curvature="0" />
    <path
       style="fill:#00b8ff;stroke:#000000;stroke-width:0.26458332px;stroke-linecap:butt;stroke-linejoin:miter;stroke-opacity:1;fill-opacity:1"
       d="m 151.39971,213.98294 -0.26608,10.11105 -6.65201,1.3304 -0.26608,5.05553 17.02914,0.26608 -0.26608,-5.32161 -4.52336,-2.39472 -0.79825,-9.04673"
       id="path1041"
       inkscape:connector-curvature="0" />
    <path
       style="fill:#00b8ff;fill-opacity:1;stroke:#000000;stroke-width:0.26458332px;stroke-linecap:butt;stroke-linejoin:miter;stroke-opacity:1"
       d="m 108.02869,213.2563 -0.26609,10.11105 -6.65201,1.3304 -0.26608,5.05553 17.02915,0.26608 -0.26608,-5.32161 -4.52336,-2.39472 -0.79825,-9.04673"
       id="path1041-1"
       inkscape:connector-curvature="0" />
    <path
       style="fill:#00b8ff;fill-opacity:1;stroke:#000000;stroke-width:0.26458332px;stroke-linecap:butt;stroke-linejoin:miter;stroke-opacity:1"
       d="m 63.593273,211.65983 -0.26608,10.11105 -6.65201,1.3304 -0.26608,5.05553 17.02914,0.26608 -0.26608,-5.32161 -4.52336,-2.39472 -0.79825,-9.04673"
       id="path1041-5"
       inkscape:connector-curvature="0" />
    <path
       style="fill:#00b8ff;fill-opacity:1;stroke:#000000;stroke-width:0.26458332px;stroke-linecap:butt;stroke-linejoin:miter;stroke-opacity:1"
       d="m 21.55258,210.32942 -0.26608,10.11105 -6.65201,1.3304 -0.26608,5.05553 17.02914,0.26608 -0.26608,-5.32161 -4.52336,-2.39472 -0.79825,-9.04673"
       id="path1041-4"
       inkscape:connector-curvature="0" />
    <ellipse
       style="fill:#00b8ff;fill-opacity:1;stroke:#f1ff00;stroke-width:0.26499999;stroke-miterlimit:4;stroke-dasharray:none;stroke-opacity:1"
       id="path1079"
       cx="11.707535"
       cy="236.46672"
       rx="1.3304017"
       ry="2.7938433" />
    <ellipse
       style="fill:#00b8ff;fill-opacity:1;stroke:#f1ff00;stroke-width:0.26499999;stroke-miterlimit:4;stroke-dasharray:none;stroke-opacity:1"
       id="path1079-9"
       cx="18.359543"
       cy="235.26936"
       rx="1.3304017"
       ry="2.7938435" />
    <ellipse
       style="fill:#00b8ff;fill-opacity:1;stroke:#f1ff00;stroke-width:0.26499999;stroke-miterlimit:4;stroke-dasharray:none;stroke-opacity:1"
       id="path1079-2"
       cx="27.406275"
       cy="235.53545"
       rx="1.3304017"
       ry="2.7938435" />
    <ellipse
       style="fill:#00b8ff;fill-opacity:1;stroke:#f1ff00;stroke-width:0.26499999;stroke-miterlimit:4;stroke-dasharray:none;stroke-opacity:1"
       id="path1079-5"
       cx="19.157784"
       cy="244.05002"
       rx="1.3304017"
       ry="2.7938435" />
    <ellipse
       style="fill:#00b8ff;fill-opacity:1;stroke:#f1ff00;stroke-width:0.26499999;stroke-miterlimit:4;stroke-dasharray:none;stroke-opacity:1"
       id="path1079-7"
       cx="25.277632"
       cy="243.25177"
       rx="1.3304017"
       ry="2.7938435" />
    <ellipse
       style="fill:#00b8ff;fill-opacity:1;stroke:#f1ff00;stroke-width:0.26499999;stroke-miterlimit:4;stroke-dasharray:none;stroke-opacity:1"
       id="path1079-4"
       cx="59.868076"
       cy="234.47112"
       rx="1.3304017"
       ry="2.7938435" />
    <ellipse
       style="fill:#00b8ff;fill-opacity:1;stroke:#f1ff00;stroke-width:0.26499999;stroke-miterlimit:4;stroke-dasharray:none;stroke-opacity:1"
       id="path1079-99"
       cx="67.584404"
       cy="234.7372"
       rx="1.3304017"
       ry="2.7938435" />
    <ellipse
       style="fill:#00b8ff;fill-opacity:1;stroke:#f1ff00;stroke-width:0.26499999;stroke-miterlimit:4;stroke-dasharray:none;stroke-opacity:1"
       id="path1079-45"
       cx="59.868076"
       cy="245.11433"
       rx="1.3304017"
       ry="2.7938435" />
    <ellipse
       style="fill:#00b8ff;fill-opacity:1;stroke:#f1ff00;stroke-width:0.26499999;stroke-miterlimit:4;stroke-dasharray:none;stroke-opacity:1"
       id="path1079-93"
       cx="71.309532"
       cy="244.3161"
       rx="1.3304017"
       ry="2.7938435" />
    <ellipse
       style="fill:#00b8ff;fill-opacity:1;stroke:#f1ff00;stroke-width:0.26499999;stroke-miterlimit:4;stroke-dasharray:none;stroke-opacity:1"
       id="path1079-57"
       cx="101.37661"
       cy="236.0676"
       rx="1.3304017"
       ry="2.7938435" />
    <ellipse
       style="fill:#00b8ff;fill-opacity:1;stroke:#f1ff00;stroke-width:0.26499999;stroke-miterlimit:4;stroke-dasharray:none;stroke-opacity:1"
       id="path1079-0"
       cx="109.6251"
       cy="236.33368"
       rx="1.3304017"
       ry="2.7938435" />
    <ellipse
       style="fill:#00b8ff;fill-opacity:1;stroke:#f1ff00;stroke-width:0.26499999;stroke-miterlimit:4;stroke-dasharray:none;stroke-opacity:1"
       id="path1079-8"
       cx="106.16605"
       cy="245.38042"
       rx="1.3304017"
       ry="2.7938435" />
    <ellipse
       style="fill:#00b8ff;fill-opacity:1;stroke:#f1ff00;stroke-width:0.26499999;stroke-miterlimit:4;stroke-dasharray:none;stroke-opacity:1"
       id="path1079-1"
       cx="154.85875"
       cy="236.0676"
       rx="1.3304017"
       ry="2.7938435" />
    <ellipse
       style="fill:#00b8ff;fill-opacity:1;stroke:#f1ff00;stroke-width:0.26499999;stroke-miterlimit:4;stroke-dasharray:none;stroke-opacity:1"
       id="path1079-997"
       cx="155.39091"
       cy="243.78394"
       rx="1.3304017"
       ry="2.7938435" />
    <text
       xml:space="preserve"
       style="font-style:normal;font-weight:normal;font-size:8.18703175px;line-height:1.25;font-family:sans-serif;letter-spacing:0px;word-spacing:0px;fill:#ffffff;fill-opacity:1;stroke:none;stroke-width:0.20467579"
       x="3.9952416"
       y="278.72809"
       id="text1170"
       transform="scale(1.045074,0.95687005)"><tspan
         sodipodi:role="line"
         id="tspan1168"
         x="3.9952416"
         y="278.72809"
         style="fill:#ffffff;stroke-width:0.20467579">planta 1t</tspan></text>
    <text
       xml:space="preserve"
       style="font-style:normal;font-weight:normal;font-size:6.98413658px;line-height:1.25;font-family:sans-serif;letter-spacing:0px;word-spacing:0px;fill:#ffffff;fill-opacity:1;stroke:none;stroke-width:0.17460342;"
       x="52.356262"
       y="248.8857"
       id="text1208"
       transform="scale(0.92395164,1.0823077)"><tspan
         sodipodi:role="line"
         id="tspan1206"
         x="52.356262"
         y="248.8857"
         style="stroke-width:0.17460342;fill:#ffffff;fill-opacity:1;">planta 2</tspan></text>
    <text
       xml:space="preserve"
       style="font-style:normal;font-weight:normal;font-size:6.55862761px;line-height:1.25;font-family:sans-serif;letter-spacing:0px;word-spacing:0px;fill:#ffffff;fill-opacity:1;stroke:none;stroke-width:0.16396569;"
       x="102.82455"
       y="251.70065"
       id="text1212"
       transform="scale(0.93572987,1.0686845)"><tspan
         sodipodi:role="line"
         id="tspan1210"
         x="102.82455"
         y="251.70065"
         style="stroke-width:0.16396569;fill:#ffffff;">planta 3</tspan></text>
    <text
       xml:space="preserve"
       style="font-style:normal;font-weight:normal;font-size:7.29607487px;line-height:1.25;font-family:sans-serif;letter-spacing:0px;word-spacing:0px;fill:#f9f9f9;fill-opacity:1;stroke:none;stroke-width:0.18240187"
       x="141.21352"
       y="295.81967"
       id="text1216"
       transform="scale(1.083442,0.92298435)"><tspan
         sodipodi:role="line"
         id="tspan1214"
         x="141.21352"
         y="295.81967"
         style="fill:#f9f9f9;stroke-width:0.18240187">planta 4</tspan></text>
    <flowRoot
       xml:space="preserve"
       id="flowRoot1237"
       style="font-style:normal;font-weight:normal;font-size:40px;line-height:1.25;font-family:sans-serif;letter-spacing:0px;word-spacing:0px;fill:#ff0000;fill-opacity:1;stroke:none"
       transform="matrix(0.26458333,0,0,0.26458333,0.53216067,169.28367)"><flowRegion
         id="flowRegion1239"
         style="fill:#ff0000;fill-opacity:1"><rect
           id="rect1241"
           width="415.33673"
           height="57.322502"
           x="233.31264"
           y="32.172626"
           style="fill:#ff0000;fill-opacity:1" /></flowRegion><flowPara
         id="flowPara1245">SISTEMA DE RIEGO</flowPara></flowRoot>  </g>
</svg>
