<?xml version="1.0" encoding="UTF-8" standalone="no"?>
<!-- Created with Inkscape (http://www.inkscape.org/) -->

<svg
   xmlns:dc="http://purl.org/dc/elements/1.1/"
   xmlns:cc="http://creativecommons.org/ns#"
   xmlns:rdf="http://www.w3.org/1999/02/22-rdf-syntax-ns#"
   xmlns:svg="http://www.w3.org/2000/svg"
   xmlns="http://www.w3.org/2000/svg"
   xmlns:sodipodi="http://sodipodi.sourceforge.net/DTD/sodipodi-0.dtd"
   xmlns:inkscape="http://www.inkscape.org/namespaces/inkscape"
   width="240mm"
   height="120mm"
   viewBox="0 0 240 120"
   version="1.1"
   id="svg8"
   inkscape:version="0.92.3 (2405546, 2018-03-11)"
   sodipodi:docname="riego_hidropónico.svg">
  <defs
     id="defs2" />
  <sodipodi:namedview
     id="base"
     pagecolor="#ffffff"
     bordercolor="#666666"
     borderopacity="1.0"
     inkscape:pageopacity="0.0"
     inkscape:pageshadow="2"
     inkscape:zoom="2.8125141"
     inkscape:cx="371.30003"
     inkscape:cy="241.00681"
     inkscape:document-units="mm"
     inkscape:current-layer="layer1"
     showgrid="false"
     showborder="true"
     width="200mm"
     showguides="true"
     inkscape:guide-bbox="true"
     inkscape:window-width="1920"
     inkscape:window-height="1031"
     inkscape:window-x="0"
     inkscape:window-y="0"
     inkscape:window-maximized="1">
    <inkscape:grid
       type="xygrid"
       id="grid815"
       units="mm"
       spacingx="10"
       spacingy="10"
       empspacing="4"
       dotted="false" />
  </sodipodi:namedview>
  <metadata
     id="metadata5">
    <rdf:RDF>
      <cc:Work
         rdf:about="">
        <dc:format>image/svg+xml</dc:format>
        <dc:type
           rdf:resource="http://purl.org/dc/dcmitype/StillImage" />
        <dc:title></dc:title>
      </cc:Work>
    </rdf:RDF>
  </metadata>
  <g
     inkscape:label="Layer 1"
     inkscape:groupmode="layer"
     id="layer1"
     transform="translate(0,-177)">
    <path
       style="fill:none;stroke:#000000;stroke-width:0.26458332px;stroke-linecap:butt;stroke-linejoin:miter;stroke-opacity:1"
       d="m 79.209973,247.89358 c 0,0 -12.417716,9.40736 0.188148,9.21921 12.605864,-0.18815 27.845789,-0.94073 27.845789,-0.94073 0,0 17.12139,-3.01036 -0.18815,-10.15995 -17.309542,-7.1496 -7.149595,-47.22495 -7.149595,-47.22495 l -5.832562,-1.31703 c 0,0 5.644417,32.17317 -14.86363,50.42345 z"
       id="path816"
       inkscape:connector-curvature="0" />
    <path
       style="fill:none;stroke:#000000;stroke-width:0.26458332px;stroke-linecap:butt;stroke-linejoin:miter;stroke-opacity:1"
       d="m 97.272106,222.4937 4.515534,0.3763 0.75259,-3.38665 -5.268124,-0.56444"
       id="path818"
       inkscape:connector-curvature="0" />
    <path
       style="fill:none;stroke:#000000;stroke-width:0.26458332px;stroke-linecap:butt;stroke-linejoin:miter;stroke-opacity:1"
       d="m 92.19213,225.12777 -5.832562,-1.31703 -0.752589,4.13923 5.456269,1.50518"
       id="path820"
       inkscape:connector-curvature="0" />
    <path
       style="fill:#501616;stroke:#000000;stroke-width:0.26458332px;stroke-linecap:butt;stroke-linejoin:miter;stroke-opacity:1"
       d="m 98.589136,233.59439 5.268124,-0.75259 0.94073,3.5748 -5.268118,1.69332"
       id="path822"
       inkscape:connector-curvature="0" />
    <path
       style="fill:#501616;fill-opacity:1;stroke:#ff0000;stroke-width:0.7122274;stroke-miterlimit:4;stroke-dasharray:none;stroke-opacity:1"
       d="m 371.47581,171.59234 -4.08887,-0.25658 v -6.00893 c 0,-5.26044 0.15501,-6.00509 1.24443,-5.97815 2.27548,0.0563 17.32186,1.94277 17.5673,2.20256 0.13279,0.14055 -0.26001,2.57553 -0.87288,5.41107 l -1.11432,5.15553 -4.3234,-0.13446 c -2.37787,-0.074 -6.16339,-0.24992 -8.41226,-0.39104 z"
       id="path824"
       inkscape:connector-curvature="0"
       transform="matrix(0.26458333,0,0,0.26458333,0,177)" />
    <path
       style="fill:#501616;fill-opacity:1;stroke:#ff0000;stroke-width:0.7122274;stroke-miterlimit:4;stroke-dasharray:none;stroke-opacity:1"
       d="m 334.83199,194.8333 c -5.19417,-1.43603 -9.61156,-2.77857 -9.81643,-2.98344 -0.20486,-0.20487 0.17778,-3.45318 0.85033,-7.21847 0.99797,-5.58721 1.43003,-6.78465 2.3498,-6.51244 0.61985,0.18344 5.42941,1.31733 10.68792,2.51975 5.25851,1.20242 9.67198,2.29728 9.80771,2.43301 0.13574,0.13573 -0.8067,3.42508 -2.09429,7.30966 l -2.34109,7.06288 z"
       id="path826"
       inkscape:connector-curvature="0"
       transform="matrix(0.26458333,0,0,0.26458333,0,177)" />
    <path
       style="fill:none;stroke:#000000;stroke-width:0.26458332px;stroke-linecap:butt;stroke-linejoin:miter;stroke-opacity:1"
       d="m 86.359568,223.81074 v 0 c 0.166334,-2.99137 -2.622321,-4.92738 -5.926638,-6.67923 1.562534,-1.27844 7.256212,2.41855 5.926638,6.67923"
       id="path878"
       inkscape:connector-curvature="0"
       sodipodi:nodetypes="cccc" />
    <path
       style="fill:none;stroke:#000000;stroke-width:0.26458332px;stroke-linecap:butt;stroke-linejoin:miter;stroke-opacity:1"
       d="m 92.19213,225.12777 v 0 c 0.166334,-2.99137 -2.622321,-4.92738 -5.926638,-6.67923 1.562534,-1.27844 7.256212,2.41855 5.926638,6.67923"
       id="path878-7"
       inkscape:connector-curvature="0"
       sodipodi:nodetypes="cccc" />
    <path
       style="fill:none;stroke:#000000;stroke-width:0.28010324px;stroke-linecap:butt;stroke-linejoin:miter;stroke-opacity:1"
       d="m 89.284352,225.07156 v 0 c 1.552872,-2.94384 -2.496447,-5.79206 -5.649417,-7.85312 1.489446,-1.50313 6.916799,2.84362 5.649417,7.85312"
       id="path878-6"
       inkscape:connector-curvature="0"
       sodipodi:nodetypes="cccc" />
    <path
       style="fill:#00ff00;fill-opacity:1;stroke:#ff0000;stroke-width:0.3561137;stroke-miterlimit:4;stroke-dasharray:none;stroke-opacity:1"
       d="m 346.96364,172.91298 c -1.63712,-3.3712 -5.43374,-7.34433 -10.08479,-10.55365 -1.73847,-1.19957 -3.8653,-3.01046 -4.7263,-4.0242 l -1.56544,-1.84317 1.20989,0.25691 c 0.66544,0.1413 2.44938,0.89695 3.96432,1.67922 4.58271,2.36639 9.38861,7.38341 11.2476,11.74173 0.68337,1.60214 1.63339,5.21615 1.41574,5.38572 -0.0709,0.0553 -0.72839,-1.1339 -1.46102,-2.64256 z"
       id="path901"
       inkscape:connector-curvature="0"
       transform="matrix(0.26458333,0,0,0.26458333,0,177)" />
    <path
       style="fill:#00ff00;fill-opacity:1;stroke:#ff0000;stroke-width:0.3561137;stroke-miterlimit:4;stroke-dasharray:none;stroke-opacity:1"
       d="m 321.20087,154.62488 c -1.99556,-1.42368 -3.52889,-2.68791 -3.40739,-2.8094 0.85258,-0.85259 4.94524,0.34047 7.7223,2.25113 l 1.68639,1.16027 -1.11522,0.6782 c -0.61337,0.37301 -1.01785,0.83574 -0.89886,1.02828 0.45415,0.73483 -0.47758,0.19538 -3.98722,-2.30848 z"
       id="path903"
       inkscape:connector-curvature="0"
       transform="matrix(0.26458333,0,0,0.26458333,0,177)" />
    <path
       style="fill:#00ff00;fill-opacity:1;stroke:#ff0000;stroke-width:0.3561137;stroke-miterlimit:4;stroke-dasharray:none;stroke-opacity:1"
       d="m 324.9193,167.93522 c -2.28881,-4.71318 -8.16974,-9.90144 -16.55073,-14.60136 -2.62818,-1.47384 -2.85339,-1.67818 -2.06705,-1.87554 1.41433,-0.35497 4.44621,0.45966 7.41546,1.99244 4.58233,2.36548 9.38842,7.38252 11.24761,11.74131 0.68337,1.60214 1.63338,5.21614 1.41574,5.38571 -0.0709,0.0553 -0.72839,-1.13389 -1.46103,-2.64256 z"
       id="path905"
       inkscape:connector-curvature="0"
       transform="matrix(0.26458333,0,0,0.26458333,0,177)" />
    <path
       style="fill:#00ff00;fill-opacity:1;stroke:#ff0000;stroke-width:0.3561137;stroke-miterlimit:4;stroke-dasharray:none;stroke-opacity:1"
       d="m 333.4157,195.66615 c -5.44624,-1.52904 -9.97304,-2.85087 -10.05955,-2.93739 -0.0865,-0.0865 0.50453,-3.73712 1.31344,-8.11246 1.11999,-6.05796 1.42473,-8.47281 1.2778,-10.12565 -0.65695,-7.39059 -6.54035,-13.85924 -18.81235,-20.68373 l -3.76147,-2.09176 1.00492,-0.59362 c 0.61766,-0.36486 1.77507,-0.59362 3.00338,-0.59362 4.13542,0 8.76606,2.45287 13.37054,7.08243 2.42261,2.4358 3.3306,3.66012 4.50393,6.07306 2.0929,4.30399 2.71285,8.02167 1.91245,11.4685 -0.17053,0.73437 -0.19125,1.40865 -0.046,1.4984 0.60662,0.3749 10.04914,2.31683 10.35284,2.12913 0.4406,-0.27231 0.42048,-4.62736 -0.0289,-6.24498 -1.26525,-4.55488 -8.54576,-11.65394 -19.10643,-18.63025 -1.41777,-0.93657 -2.57777,-1.83527 -2.57777,-1.99711 0,-0.16184 0.50946,-0.55771 1.13213,-0.87971 2.33061,-1.2052 6.38487,-0.0142 10.497,3.08356 1.21752,0.9172 2.22488,1.39472 2.94221,1.39472 3.21003,0 8.29007,2.8869 12.46287,7.08243 2.41399,2.42714 3.33623,3.66872 4.51103,6.07306 1.73398,3.54875 2.41186,6.6457 2.12562,9.71099 -0.23947,2.5644 -0.47868,3.3202 -1.12997,3.57012 -0.25884,0.0993 -2.51452,-0.29234 -5.01262,-0.87037 -4.64513,-1.07484 -5.10714,-1.04508 -5.12293,0.32994 -0.003,0.26074 -0.20545,0.40326 -0.44989,0.31672 -0.24444,-0.0865 -0.41432,-0.57987 -0.3775,-1.09629 0.0368,-0.51642 -0.0175,-0.93894 -0.1207,-0.93894 -0.1032,0 -2.26483,-0.48 -4.80362,-1.06666 -2.53879,-0.58667 -4.88567,-1.06666 -5.21529,-1.06666 -0.49865,0 -0.79804,1.11965 -1.78265,6.66663 -0.65084,3.66665 -1.25856,6.9931 -1.35049,7.39212 -0.15454,0.67078 0.59757,0.93597 9.97564,3.51732 5.57854,1.53552 10.058,2.92904 9.95437,3.09672 -0.24024,0.38872 0.82907,0.64706 -10.58204,-2.55665 z m 14.58317,-16.31332 c -0.43467,-4.15869 -2.51054,-8.01782 -6.34227,-11.79052 -1.94824,-1.91823 -6.29445,-5.30112 -6.81068,-5.30112 -0.11219,0 0.34443,1.16 1.01471,2.57777 1.65982,3.51079 3.11602,9.11708 3.15722,12.15511 l 0.0335,2.46627 4.26664,0.96795 c 2.34666,0.53238 4.40944,0.98255 4.58397,1.00038 0.17616,0.018 0.21929,-0.90543 0.0969,-2.07584 z m 0.28564,-6.47914 c -0.74476,-2.8881 -2.20028,-5.61527 -4.48752,-8.40813 -3.09968,-3.78489 -8.83198,-7.54328 -12.36722,-8.10859 l -1.55869,-0.24924 1.74568,2.11799 c 0.96013,1.16489 3.00872,2.98942 4.55242,4.0545 5.94927,4.10472 10.47014,9.37824 11.86883,13.84477 l 0.61325,1.95835 0.10763,-1.47634 c 0.0592,-0.81198 -0.15427,-2.49197 -0.47438,-3.73331 z m -22.04164,-4.95643 c -0.96866,-3.73817 -2.77791,-6.77909 -5.99212,-10.07128 -2.27909,-2.33439 -6.34493,-5.01637 -9.04155,-5.96416 -2.21252,-0.77764 -5.58363,-0.95911 -6.20852,-0.33422 -0.2493,0.2493 -0.26402,0.40253 -0.0387,0.40253 0.72892,0 8.82094,5.03879 11.69057,7.27956 4.9438,3.8604 8.25079,8.14321 9.47887,12.2759 l 0.47546,1.59999 0.10764,-1.47633 c 0.0592,-0.81198 -0.15306,-2.48238 -0.47169,-3.71199 z m 9.75356,-1.12276 c -1.11028,-2.82587 -2.74156,-5.50274 -3.81019,-6.25235 -0.52642,-0.36926 -2.19711,-1.348 -3.71266,-2.17496 -1.51555,-0.82697 -2.75554,-1.57147 -2.75554,-1.65444 0,-0.083 0.47896,-0.44214 1.06435,-0.79814 l 1.06435,-0.64727 -1.65414,-1.18791 c -3.07391,-2.20751 -6.35183,-3.20898 -8.56341,-2.6163 -1.12645,0.30188 -1.01681,0.527 0.82272,1.68918 6.24173,3.9434 14.79313,11.15496 16.90561,14.25684 1.22178,1.79401 1.48556,1.54025 0.63891,-0.61465 z m -5.83397,-9.15551 c -1.27154,-1.30218 -2.5436,-1.78229 -3.14056,-1.18534 -0.23018,0.23018 3.51192,2.53806 4.19049,2.58441 0.18636,0.0127 -0.28611,-0.61685 -1.04993,-1.39907 z"
       id="path907"
       inkscape:connector-curvature="0"
       transform="matrix(0.26458333,0,0,0.26458333,0,177)" />
    <path
       style="fill:#00ff00;fill-opacity:1;stroke:#ff0000;stroke-width:0.3561137;stroke-miterlimit:4;stroke-dasharray:none;stroke-opacity:1"
       d=""
       id="path909"
       inkscape:connector-curvature="0"
       transform="matrix(0.26458333,0,0,0.26458333,0,177)" />
    <path
       style="fill:#00ff00;fill-opacity:1;stroke:#ff0000;stroke-width:0.3561137;stroke-miterlimit:4;stroke-dasharray:none;stroke-opacity:1"
       d="m 333.46264,164.5956 c -0.915,-1.03782 -3.10914,-3.05699 -4.87587,-4.48705 -1.76673,-1.43006 -3.1495,-2.66286 -3.07281,-2.73955 0.21301,-0.213 5.45994,2.73961 6.65427,3.74457 0.94075,0.79159 3.37776,4.94924 3.07718,5.24982 -0.0655,0.0655 -0.86778,-0.72998 -1.78277,-1.76779 z"
       id="path911"
       inkscape:connector-curvature="0"
       transform="matrix(0.26458333,0,0,0.26458333,0,177)" />
    <path
       style="fill:#00ff00;fill-opacity:1;stroke:#ff0000;stroke-width:0.3561137;stroke-miterlimit:4;stroke-dasharray:none;stroke-opacity:1"
       d="m 331.07592,161.86645 c -2.74574,-2.5458 -2.9793,-3.12154 -0.59233,-1.4601 1.38721,0.96556 3.66692,3.50489 3.38417,3.76958 -0.0824,0.0771 -1.3387,-0.96216 -2.79184,-2.30948 z"
       id="path913"
       inkscape:connector-curvature="0"
       transform="matrix(0.26458333,0,0,0.26458333,0,177)" />
    <path
       style="fill:none;stroke:#000000;stroke-width:0.26458332px;stroke-linecap:butt;stroke-linejoin:miter;stroke-opacity:1"
       d="m 98.139488,220.21967 v 0 c 0.166334,-2.99137 -2.622321,-4.92738 -5.926638,-6.67923 1.562534,-1.27844 7.256211,2.41855 5.926638,6.67923"
       id="path878-8"
       inkscape:connector-curvature="0"
       sodipodi:nodetypes="cccc" />
    <path
       style="fill:none;stroke:#000000;stroke-width:0.28010324px;stroke-linecap:butt;stroke-linejoin:miter;stroke-opacity:1"
       d="m 101.06427,221.48049 v 0 c 1.55287,-2.94384 -2.496445,-5.79206 -5.649415,-7.85312 1.489446,-1.50313 6.916795,2.84362 5.649415,7.85312"
       id="path878-6-0"
       inkscape:connector-curvature="0"
       sodipodi:nodetypes="cccc" />
    <path
       style="fill:#00ff00;fill-opacity:1;stroke:#ff0000;stroke-width:0.09422175;stroke-miterlimit:4;stroke-dasharray:none;stroke-opacity:1"
       d="m 96.764316,214.32009 c -0.527992,-0.37668 -0.933686,-0.71117 -0.901539,-0.74332 0.225579,-0.22558 1.308428,0.0901 2.043192,0.59561 l 0.446191,0.30699 -0.295069,0.17944 c -0.162287,0.0987 -0.269306,0.22113 -0.237823,0.27207 0.12016,0.19442 -0.12636,0.0517 -1.054952,-0.61079 z"
       id="path903-8"
       inkscape:connector-curvature="0" />
    <path
       style="fill:#00ff00;fill-opacity:1;stroke:#ff0000;stroke-width:0.09422175;stroke-miterlimit:4;stroke-dasharray:none;stroke-opacity:1"
       d="m 97.74815,217.84179 c -0.605581,-1.24703 -2.161577,-2.61976 -4.379047,-3.86328 -0.695373,-0.38995 -0.754959,-0.44402 -0.546907,-0.49624 0.374208,-0.0939 1.176393,0.12162 1.962007,0.52717 1.212408,0.62587 2.48402,1.95329 2.97593,3.10656 0.180809,0.4239 0.432166,1.3801 0.374582,1.42497 -0.01876,0.0146 -0.19272,-0.30001 -0.386565,-0.69918 z"
       id="path905-7"
       inkscape:connector-curvature="0" />
    <path
       style="fill:#00ff00;fill-opacity:1;stroke:#ff0000;stroke-width:0.09422175;stroke-miterlimit:4;stroke-dasharray:none;stroke-opacity:1"
       d="m 100.00857,216.95818 c -0.242089,-0.27459 -0.822619,-0.80883 -1.290068,-1.1872 -0.467447,-0.37837 -0.833305,-0.70455 -0.813014,-0.72484 0.05636,-0.0563 1.444613,0.72486 1.760613,0.99075 0.2489,0.20944 0.893689,1.30949 0.814169,1.38902 -0.0173,0.0173 -0.2296,-0.19314 -0.4717,-0.46773 z"
       id="path911-9"
       inkscape:connector-curvature="0" />
    <path
       style="fill:#00ff00;fill-opacity:1;stroke:#ff0000;stroke-width:0.09422175;stroke-miterlimit:4;stroke-dasharray:none;stroke-opacity:1"
       d="m 99.377091,216.23609 c -0.726479,-0.67357 -0.788275,-0.82591 -0.15672,-0.38632 0.36703,0.25548 0.970199,0.92734 0.895389,0.99737 -0.0218,0.0204 -0.354189,-0.25457 -0.738669,-0.61105 z"
       id="path913-0"
       inkscape:connector-curvature="0" />
    <path
       style="fill:none;stroke:#000000;stroke-width:0.26458332px;stroke-linecap:butt;stroke-linejoin:miter;stroke-opacity:1"
       d="m 98.980466,235.97227 v 0 c 0.16634,-2.99137 -2.622317,-4.92738 -5.926634,-6.67923 1.562534,-1.27844 7.256218,2.41855 5.926634,6.67923"
       id="path878-3"
       inkscape:connector-curvature="0"
       sodipodi:nodetypes="cccc" />
    <path
       style="fill:none;stroke:#000000;stroke-width:0.26458332px;stroke-linecap:butt;stroke-linejoin:miter;stroke-opacity:1"
       d="m 104.81304,237.2893 v 0 c 0.16633,-2.99137 -2.62233,-4.92738 -5.926644,-6.67923 1.562534,-1.27844 7.256214,2.41855 5.926644,6.67923"
       id="path878-7-3"
       inkscape:connector-curvature="0"
       sodipodi:nodetypes="cccc" />
    <path
       style="fill:none;stroke:#000000;stroke-width:0.28010324px;stroke-linecap:butt;stroke-linejoin:miter;stroke-opacity:1"
       d="m 101.90526,237.23309 v 0 c 1.55287,-2.94384 -2.496454,-5.79206 -5.649423,-7.85312 1.489446,-1.50313 6.916803,2.84362 5.649423,7.85312"
       id="path878-6-3"
       inkscape:connector-curvature="0"
       sodipodi:nodetypes="cccc" />
    <path
       style="fill:#00ff00;fill-opacity:1;stroke:#ff0000;stroke-width:0.09422175;stroke-miterlimit:4;stroke-dasharray:none;stroke-opacity:1"
       d="m 104.4217,234.91142 c -0.43315,-0.89196 -1.43768,-1.94319 -2.66827,-2.79232 -0.45997,-0.31739 -1.02269,-0.79652 -1.2505,-1.06474 l -0.41419,-0.48767 0.32012,0.068 c 0.17607,0.0374 0.64807,0.23731 1.04889,0.44429 1.21251,0.62611 2.48407,1.95353 2.97593,3.10667 0.18081,0.4239 0.43217,1.3801 0.37458,1.42497 -0.0188,0.0146 -0.19272,-0.30001 -0.38656,-0.69918 z"
       id="path901-7"
       inkscape:connector-curvature="0" />
    <path
       style="fill:#00ff00;fill-opacity:1;stroke:#ff0000;stroke-width:0.09422175;stroke-miterlimit:4;stroke-dasharray:none;stroke-opacity:1"
       d="m 97.605298,230.07269 c -0.527992,-0.37668 -0.933686,-0.71117 -0.901539,-0.74332 0.225579,-0.22558 1.308428,0.0901 2.043187,0.59561 l 0.4462,0.30699 -0.29507,0.17944 c -0.16229,0.0987 -0.26931,0.22113 -0.23783,0.27207 0.12016,0.19442 -0.12636,0.0517 -1.054948,-0.61079 z"
       id="path903-3"
       inkscape:connector-curvature="0" />
    <path
       style="fill:#00ff00;fill-opacity:1;stroke:#ff0000;stroke-width:0.09422175;stroke-miterlimit:4;stroke-dasharray:none;stroke-opacity:1"
       d="m 98.589136,233.59439 c -0.605585,-1.24703 -2.161581,-2.61976 -4.379051,-3.86328 -0.695373,-0.38995 -0.75496,-0.44402 -0.546907,-0.49624 0.374208,-0.0939 1.176393,0.12162 1.962007,0.52717 1.212408,0.62587 2.48402,1.95329 2.975931,3.10656 0.18081,0.4239 0.43216,1.3801 0.37458,1.42497 -0.0188,0.0146 -0.19272,-0.30001 -0.38656,-0.69918 z"
       id="path905-2"
       inkscape:connector-curvature="0" />
    <path
       style="fill:#00ff00;fill-opacity:1;stroke:#ff0000;stroke-width:0.09422175;stroke-miterlimit:4;stroke-dasharray:none;stroke-opacity:1"
       d="m 100.84956,232.71078 c -0.24209,-0.27459 -0.82262,-0.80883 -1.290074,-1.1872 -0.46745,-0.37837 -0.83331,-0.70455 -0.81302,-0.72484 0.0564,-0.0563 1.444614,0.72486 1.760614,0.99075 0.24891,0.20944 0.8937,1.30949 0.81417,1.38902 -0.0173,0.0173 -0.2296,-0.19314 -0.47169,-0.46773 z"
       id="path911-6"
       inkscape:connector-curvature="0" />
    <path
       style="fill:#00ff00;fill-opacity:1;stroke:#ff0000;stroke-width:0.09422175;stroke-miterlimit:4;stroke-dasharray:none;stroke-opacity:1"
       d="m 100.21808,231.98869 c -0.726484,-0.67357 -0.788284,-0.82591 -0.15673,-0.38632 0.36704,0.25548 0.97021,0.92734 0.8954,0.99737 -0.0218,0.0204 -0.3542,-0.25457 -0.73867,-0.61105 z"
       id="path913-5"
       inkscape:connector-curvature="0" />
    <path
       style="fill:#00ff00;fill-opacity:1;stroke:#ff0000;stroke-width:0.3561137;stroke-miterlimit:4;stroke-dasharray:none;stroke-opacity:1"
       d="m 372.92106,144.87434 c -1.3182,-0.73286 -2.49208,-1.42781 -2.60861,-1.54435 -0.11654,-0.11653 0.21181,-0.4895 0.72967,-0.82881 l 0.94156,-0.61693 1.93372,1.9097 c 2.9054,2.86931 2.67359,3.12067 -0.99634,1.08039 z"
       id="path985"
       inkscape:connector-curvature="0"
       transform="matrix(0.26458333,0,0,0.26458333,0,177)" />
    <path
       style="fill:none;stroke:#0000dc;stroke-width:0.26458332px;stroke-linecap:butt;stroke-linejoin:miter;stroke-opacity:1"
       d="m 86.829936,244.13063 c -1.034809,0.65852 -6.114785,5.17405 -6.114785,5.55035 0,0.37629 -6.397004,1.69332 -3.762944,4.32738 2.634062,2.63406 24.459133,1.97555 27.751713,0.47037 3.29258,-1.50518 9.31329,-2.25777 5.45627,-4.79775 -3.85702,-2.53999 -11.853275,-1.03481 -15.239926,-9.59551 -3.386648,-8.5607 2.163694,-10.3481 0.658517,-19.56731 -1.505178,-9.21921 3.292575,-15.80437 2.634062,-17.96806 -0.658517,-2.16369 -1.975546,-4.51553 -2.351842,0.56444 -0.376293,5.07998 -2.916282,41.01609 -4.045164,40.92202 -1.128885,-0.0941 -11.288834,5.45627 -10.630318,7.33774 0.658516,1.88147 19.473231,3.38665 21.636931,2.35184 2.16369,-1.03481 6.11478,-0.37629 4.51553,-2.91628 -1.59925,-2.53999 -14.393261,-7.05552 -18.720646,-2.72814 -4.327385,4.32739 7.619963,4.98591 9.219213,4.32739 1.59925,-0.65851 -0.846661,-5.92664 -2.351839,-4.89183 -1.505177,1.03481 -5.644417,1.22296 -3.574799,2.44592 2.069622,1.22295 3.480724,-0.18815 3.480724,-0.18815"
       id="path991"
       inkscape:connector-curvature="0" />
  </g>
</svg>
